<svg xmlns="http://www.w3.org/2000/svg" height="251" preserveAspectRatio="none" style="width:122px;height:251px" width="122"><defs><filter height="300%" id="a" width="300%" x="-1" y="-1"><feGaussianBlur result="blurOut" stdDeviation="2"/><feColorMatrix in="blurOut" result="blurOut2" values="0 0 0 0 0 0 0 0 0 0 0 0 0 0 0 0 0 0 .4 0"/><feOffset dx="4" dy="4" in="blurOut2" result="blurOut3"/><feBlend in="SourceGraphic" in2="blurOut3"/></filter></defs><path style="stroke:#a80036;stroke-width:1;stroke-dasharray:5,5" d="M27 88.488v78.621m72.5-78.621v78.621"/><path fill="#FEFECE" filter="url(#a)" style="stroke:#a80036;stroke-width:1.5" d="M5 53h40v30.488H5z"/><text font-family="sans-serif" font-size="14" lengthAdjust="spacingAndGlyphs" textLength="26" x="12" y="73.535">Bob</text><path fill="#FEFECE" filter="url(#a)" style="stroke:#a80036;stroke-width:1.5" d="M5 166.109h40v30.488H5z"/><text font-family="sans-serif" font-size="14" lengthAdjust="spacingAndGlyphs" textLength="26" x="12" y="186.644">Bob</text><text font-family="sans-serif" font-size="14" lengthAdjust="spacingAndGlyphs" textLength="33" x="80.5" y="85.535">Alice</text><circle cx="100" cy="15" fill="#FEFECE" filter="url(#a)" style="stroke:#a80036;stroke-width:2" r="8"/><path d="M100 23v27M87 31h26m-13 19L87 65m13-15 13 15" fill="none" filter="url(#a)" style="stroke:#a80036;stroke-width:2"/><text font-family="sans-serif" font-size="14" lengthAdjust="spacingAndGlyphs" textLength="33" x="80.5" y="179.644">Alice</text><circle cx="100" cy="192.598" fill="#FEFECE" filter="url(#a)" style="stroke:#a80036;stroke-width:2" r="8"/><path d="M100 200.598v27m-13-19h26m-13 19-13 15m13-15 13 15" fill="none" filter="url(#a)" style="stroke:#a80036;stroke-width:2"/><path fill="#A80036" style="stroke:#a80036;stroke-width:1" d="m88 115.799 10 4-10 4 4-4z"/><path style="stroke:#a80036;stroke-width:1" d="M27 119.799h67"/><text font-family="sans-serif" font-size="13" lengthAdjust="spacingAndGlyphs" textLength="31" x="34" y="115.057">hello</text><path fill="#A80036" style="stroke:#a80036;stroke-width:1" d="m38 145.11-10 4 10 4-4-4z"/><path style="stroke:#a80036;stroke-width:1" d="M32 149.109h67"/><text font-family="sans-serif" font-size="13" lengthAdjust="spacingAndGlyphs" textLength="49" x="44" y="144.367">Is it ok?</text></svg>